<svg xmlns="http://www.w3.org/2000/svg" xmlns:xlink="http://www.w3.org/1999/xlink" version="1.1" width="77.67667757936518" height="84.85792349726779" viewBox="-2.8660956625800367 0.34153005464480657 77.67667757936518 84.85792349726779" xml:space="preserve">
<defs>
</defs>
<g transform="matrix(1 0 0 1 -2.37 84.7)" id="JLoTN4LvCPIx2Cv1gIkJj"  >
<path style="stroke: rgb(239, 91, 89); stroke-width: 1; stroke-dasharray: none; stroke-linecap: butt; stroke-dashoffset: 0; stroke-linejoin: miter; stroke-miterlimit: 4; fill: rgb(255,255,255); fill-opacity: 0; fill-rule: nonzero; opacity: 1;" vector-effect="non-scaling-stroke"  transform=" translate(0, 0)" d="M 0 0" stroke-linecap="round" />
</g>
<g transform="matrix(1 0 0 1 37.58 37.37)" id="iL57YRQI45AyPjBsveE85"  >
<path style="stroke: rgb(239, 91, 89); stroke-width: 5; stroke-dasharray: none; stroke-linecap: butt; stroke-dashoffset: 0; stroke-linejoin: miter; stroke-miterlimit: 4; fill: rgb(255,255,255); fill-opacity: 0; fill-rule: nonzero; opacity: 1;" vector-effect="non-scaling-stroke"  transform=" translate(0, 0)" d="M -13.13164 -0.21558 L -32.783100000000005 19.595280000000002 L -32.783100000000005 19.595280000000002 C -34.306290000000004 21.130820000000003 -34.987970000000004 23.31097 -34.61083000000001 25.440710000000003 L -34.61083000000001 25.440710000000003 L -34.61083000000001 25.440710000000003 C -33.72688000000001 30.432420000000004 -29.551370000000006 34.17705 -24.493230000000008 34.51426 L -24.493230000000008 34.51426 L -24.493230000000008 34.51426 C -22.878360000000008 34.62192 -21.295040000000007 34.03077 -20.145850000000006 32.89113 L 0.163419999999995 12.750499999999995 L 19.477449999999994 32.006209999999996 L 19.477449999999994 32.006209999999996 C 20.732659999999996 33.25763 22.378429999999994 34.04168 24.141079999999995 34.227979999999995 L 24.141079999999995 34.227979999999995 L 24.141079999999995 34.227979999999995 C 27.116949999999996 34.5425 30.068979999999996 33.449259999999995 32.122159999999994 31.272289999999995 C 34.17533999999999 29.095319999999994 35.0941 26.084419999999994 34.60609999999999 23.132029999999993 L 34.56015999999999 22.854099999999992 L 34.56015999999999 22.854099999999992 C 34.31328999999999 21.360539999999993 33.60411999999999 19.98204999999999 32.53251999999999 18.91276999999999 L 13.362659999999991 -0.21558000000000987 L 31.93359999999999 -18.605640000000008 L 31.93359999999999 -18.605640000000008 C 33.35982999999999 -20.01798000000001 34.09821999999999 -21.98270000000001 33.955209999999994 -23.984800000000007 L 33.955209999999994 -23.984800000000007 L 33.955209999999994 -23.984800000000007 C 33.75610999999999 -26.772190000000005 32.41788 -29.354560000000006 30.255319999999994 -31.124450000000007 C 28.092759999999995 -32.89434000000001 25.296759999999992 -33.69552000000001 22.525029999999994 -33.33952000000001 L 22.525029999999994 -33.33952000000001 L 22.525029999999994 -33.33952000000001 C 20.682839999999995 -33.10291000000001 18.972449999999995 -32.25782000000001 17.66528999999999 -30.938360000000007 L 0.16340999999999184 -13.271810000000006 L -18.905410000000007 -32.397890000000004 L -18.905410000000007 -32.397890000000004 C -20.370730000000005 -33.867610000000006 -22.396170000000005 -34.63806 -24.467830000000006 -34.513760000000005 L -26.170000000000005 -34.41163 L -26.170000000000005 -34.41163 C -30.495460000000005 -34.152100000000004 -34.041450000000005 -30.88548 -34.65426000000001 -26.59579 L -34.65426000000001 -26.59579 L -34.65426000000001 -26.59579 C -35.005970000000005 -24.13382 -34.18974000000001 -21.64862 -32.44677000000001 -19.87462 z" stroke-linecap="round" />
</g>
</svg>